<?xml version="1.0" encoding="UTF-8"?>
<!DOCTYPE svg PUBLIC "-//W3C//DTD SVG 1.1//EN" "http://www.w3.org/Graphics/SVG/1.1/DTD/svg11.dtd">
<!-- Creator: CorelDRAW 2021 (64-Bit) -->
<svg xmlns="http://www.w3.org/2000/svg" xml:space="preserve" width="1.6307in" height="0.492646in" version="1.1" style="shape-rendering:geometricPrecision; text-rendering:geometricPrecision; image-rendering:optimizeQuality; fill-rule:evenodd; clip-rule:evenodd"
viewBox="0 0 17.77 5.37"
 xmlns:xlink="http://www.w3.org/1999/xlink"
 xmlns:xodm="http://www.corel.com/coreldraw/odm/2003">
 <defs>
  <style type="text/css">
   <![CDATA[
    .fil0 {fill:white}
    .fil1 {fill:white;fill-rule:nonzero}
   ]]>
  </style>
 </defs>
 <g id="Layer_x0020_1">
  <metadata id="CorelCorpID_0Corel-Layer"/>
  <path class="fil0" d="M4.37 0.99l-0.02 4.36 -4.35 0.02 0 -2.96 0.01 -1.4 4.36 -0.02zm-0.15 0.15l-4.06 0.02 -0.02 4.06 4.06 -0.02 0.02 -4.06z"/>
  <path class="fil1" d="M1.16 1.01c0.13,-0.13 0.26,-0.26 0.39,-0.39 0.48,0.48 0.96,0.96 1.44,1.44 0.1,0.1 0.2,0.19 0.28,0.3 0.94,1.29 -0.82,2.93 -2.05,1.79 -0.45,-0.42 -0.55,-1.12 -0.25,-1.65 0.15,-0.27 0.56,-0.64 0.79,-0.88 -0.2,-0.2 -0.41,-0.41 -0.61,-0.61zm0.65 2.88c0.73,0.37 1.49,-0.54 1.02,-1.18 -0.2,-0.25 -0.45,-0.46 -0.67,-0.69 -0.19,0.18 -0.37,0.37 -0.55,0.55 -0.33,0.33 -0.32,0.88 -0,1.18 0.06,0.06 0.13,0.1 0.21,0.14z"/>
  <rect class="fil0" transform="matrix(0.0736307 -0.0736307 0.0359364 0.0359364 1.78314 0.385279)" width="5.23" height="10.79"/>
  <path class="fil1" d="M0.27 1.96c0.18,-0.29 0.45,-0.51 0.68,-0.75 0.13,0.13 0.26,0.26 0.39,0.39 -0.24,0.25 -0.51,0.48 -0.67,0.79 -0.3,0.57 -0.24,1.26 0.12,1.77 0.06,0.08 0.12,0.15 0.19,0.22 0.07,0.07 0.15,0.13 0.24,0.19 0.66,0.45 1.42,0.35 2.03,-0.1 0.13,0.13 0.26,0.26 0.39,0.39 -0.19,0.16 -0.4,0.28 -0.61,0.37l-1.73 0.01c-0.03,-0.01 -0.05,-0.02 -0.08,-0.03 -0.24,-0.11 -0.46,-0.26 -0.64,-0.44 -0.07,-0.07 -0.13,-0.14 -0.19,-0.21 -0.19,-0.24 -0.32,-0.51 -0.4,-0.8l0 -1.19c0.06,-0.21 0.15,-0.41 0.27,-0.6z"/>
  <path class="fil1" d="M2.38 1l0.39 -0.39c0.32,0.32 0.55,0.55 0.78,0.78 0.07,0.07 0.14,0.14 0.22,0.22 0.19,0.2 0.35,0.44 0.45,0.69l-0.01 1.75c-0.09,0.22 -0.22,0.42 -0.38,0.59 -0.13,-0.13 -0.26,-0.26 -0.38,-0.38 0.1,-0.15 0.21,-0.29 0.27,-0.46 0.24,-0.59 0.11,-1.31 -0.32,-1.78 -0.08,-0.08 -0.16,-0.16 -0.23,-0.24 -0.26,-0.26 -0.52,-0.52 -0.78,-0.78z"/>
  <path class="fil1" d="M6.31 3.01c0.34,0 0.62,-0.12 0.8,-0.35l-0.29 -0.27c-0.13,0.15 -0.3,0.23 -0.49,0.23 -0.36,0 -0.62,-0.26 -0.62,-0.62 0,-0.37 0.26,-0.62 0.62,-0.62 0.19,0 0.36,0.08 0.49,0.23l0.29 -0.27c-0.18,-0.22 -0.47,-0.35 -0.8,-0.35 -0.61,0 -1.06,0.42 -1.06,1.01 0,0.59 0.45,1.01 1.06,1.01zm1.11 -0.03l0.89 0c0.64,0 1.07,-0.38 1.07,-0.97 0,-0.59 -0.44,-0.97 -1.07,-0.97l-0.89 0 0 1.95zm0.45 -0.37l0 -1.21 0.41 0c0.39,0 0.64,0.23 0.64,0.6 0,0.37 -0.25,0.6 -0.64,0.6l-0.41 0zm2.21 0.4c0.46,0 0.7,-0.24 0.7,-0.72l0 -1.26 -1.13 0 0 0.36 0.69 0 0 0.93c0,0.21 -0.09,0.32 -0.28,0.32 -0.14,0 -0.26,-0.07 -0.36,-0.21l-0.25 0.3c0.14,0.18 0.37,0.28 0.63,0.28z"/>
  <path class="fil1" d="M6.22 3.37l-0.85 0 0 1.95 0.45 0 0 -0.54 0.39 0c0.52,0 0.85,-0.27 0.85,-0.71 0,-0.44 -0.33,-0.71 -0.85,-0.71zm-0.03 1.05l-0.37 0 0 -0.68 0.37 0c0.28,0 0.42,0.13 0.42,0.34 0,0.21 -0.14,0.34 -0.42,0.34zm1.91 0.93c0.48,0 0.82,-0.32 0.82,-0.77 0,-0.45 -0.35,-0.77 -0.82,-0.77 -0.48,0 -0.83,0.32 -0.83,0.77 0,0.45 0.35,0.77 0.83,0.77zm0 -0.36c-0.22,0 -0.39,-0.16 -0.39,-0.42 0,-0.26 0.17,-0.42 0.39,-0.42 0.22,0 0.38,0.16 0.38,0.42 0,0.26 -0.16,0.42 -0.38,0.42zm1.53 -0.97l0 -0.2 -0.42 0 0 1.5 0.44 0 0 -0.71c0,-0.29 0.16,-0.42 0.4,-0.42 0.03,0 0.06,0 0.1,0.01l0 -0.4c-0.23,0 -0.41,0.08 -0.52,0.22zm1.64 0.92c-0.05,0.04 -0.11,0.06 -0.18,0.06 -0.12,0 -0.19,-0.07 -0.19,-0.2l0 -0.61 0.37 0 0 -0.34 -0.37 0 0 -0.37 -0.44 0 0 0.37 -0.23 0 0 0.34 0.23 0 0 0.62c0,0.36 0.21,0.54 0.56,0.54 0.13,0 0.27,-0.03 0.35,-0.09l-0.12 -0.31zm0.84 -1.15c0,-0.15 0.07,-0.22 0.2,-0.22 0.07,0 0.13,0.02 0.18,0.05l0.11 -0.32c-0.08,-0.06 -0.21,-0.08 -0.33,-0.08 -0.37,0 -0.58,0.22 -0.58,0.56l0 0.07 -0.23 0 0 0.34 0.23 0 0 1.13 0.44 0 0 -1.13 0.37 0 0 -0.34 -0.39 0 0 -0.06zm1.32 1.56c0.48,0 0.82,-0.32 0.82,-0.77 0,-0.45 -0.35,-0.77 -0.82,-0.77 -0.48,0 -0.83,0.32 -0.83,0.77 0,0.45 0.35,0.77 0.83,0.77zm0 -0.36c-0.22,0 -0.39,-0.16 -0.39,-0.42 0,-0.26 0.17,-0.42 0.39,-0.42 0.22,0 0.38,0.16 0.38,0.42 0,0.26 -0.16,0.42 -0.38,0.42zm1.11 0.34l0.44 0 0 -2.07 -0.44 0 0 2.07zm1.06 -1.71c0.16,0 0.27,-0.11 0.27,-0.25 0,-0.13 -0.11,-0.23 -0.27,-0.23 -0.16,0 -0.27,0.11 -0.27,0.24 0,0.14 0.11,0.24 0.27,0.24zm-0.22 1.71l0.44 0 0 -1.5 -0.44 0 0 1.5zm1.56 0.02c0.48,0 0.82,-0.32 0.82,-0.77 0,-0.45 -0.35,-0.77 -0.82,-0.77 -0.48,0 -0.83,0.32 -0.83,0.77 0,0.45 0.35,0.77 0.83,0.77zm0 -0.36c-0.22,0 -0.39,-0.16 -0.39,-0.42 0,-0.26 0.17,-0.42 0.39,-0.42 0.22,0 0.38,0.16 0.38,0.42 0,0.26 -0.16,0.42 -0.38,0.42z"/>
 </g>
</svg>
