<?xml version="1.0" encoding="UTF-8"?>
<!DOCTYPE svg PUBLIC "-//W3C//DTD SVG 1.1//EN" "http://www.w3.org/Graphics/SVG/1.1/DTD/svg11.dtd">
<!-- Creator: CorelDRAW 2021 (64-Bit) -->
<svg xmlns="http://www.w3.org/2000/svg" xml:space="preserve" width="1.75106in" height="2.05996in" version="1.1" style="shape-rendering:geometricPrecision; text-rendering:geometricPrecision; image-rendering:optimizeQuality; fill-rule:evenodd; clip-rule:evenodd"
viewBox="0 0 21.21 24.95"
 xmlns:xlink="http://www.w3.org/1999/xlink"
 xmlns:xodm="http://www.corel.com/coreldraw/odm/2003">
 <defs>
  <style type="text/css">
   <![CDATA[
    .fil0 {fill:#D3C9E6}
   ]]>
  </style>
    <clipPath id="id0">
     <path d="M-0 0l21.21 0 0 24.95 -21.21 0 0 -24.95z"/>
    </clipPath>
 </defs>
 <g id="Layer_x0020_1">
  <metadata id="CorelCorpID_0Corel-Layer"/>
  <g id="_2243454042800">
   <g style="clip-path:url(#id0)">
    <image x="-0" y="0" width="21.21" height="24.95" xlink:href="logo_icon_Images\logo_icon_ImgID1.png"/>
   </g>
   <path class="fil0" d="M18.76 6.14l-0.07 16.29 -16.24 0.07 0 -6.07 0 -4.44 0 -0.56 0.02 -5.22 4.33 -0.02c0.48,-0.48 0.96,-0.96 1.43,-1.43 0.47,0.47 0.95,0.95 1.42,1.42l1.7 -0.01 1.45 -1.45c0.54,0.54 1.01,1.01 1.44,1.44l4.51 -0.02zm-3.95 0.57c0.32,0.31 0.62,0.61 0.92,0.91 0.27,0.27 0.54,0.54 0.81,0.82 0.69,0.72 1.25,1.56 1.65,2.47l0.02 -4.22 -3.4 0.02zm3.35 10.95c-0.34,0.77 -0.8,1.48 -1.37,2.1 -0.48,-0.47 -0.95,-0.96 -1.43,-1.43 0.38,-0.54 0.77,-1.1 1.01,-1.72 0.9,-2.2 0.42,-4.9 -1.21,-6.63 -0.29,-0.3 -0.58,-0.6 -0.88,-0.89 -0.79,-0.79 -1.58,-1.57 -2.37,-2.36l-1.69 0.01c1.14,1.14 2.27,2.27 3.41,3.41 0.36,0.37 0.75,0.71 1.04,1.14 3.51,4.83 -3.08,10.96 -7.67,6.67 -1.67,-1.56 -2.07,-4.19 -0.92,-6.18 0.56,-1 2.09,-2.4 2.97,-3.27 -0.59,-0.58 -1.17,-1.17 -1.76,-1.75l-4.26 0.02 -0.02 3.79c0.13,-0.27 0.29,-0.53 0.45,-0.79 0.68,-1.07 1.66,-1.91 2.55,-2.8 0.48,0.49 0.97,0.97 1.45,1.45 -0.88,0.94 -1.91,1.78 -2.52,2.94 -1.14,2.12 -0.89,4.71 0.46,6.59 0.21,0.29 0.44,0.56 0.7,0.82 0.27,0.26 0.56,0.5 0.88,0.71 2.45,1.67 5.29,1.32 7.59,-0.37 0.48,0.49 0.97,0.97 1.46,1.46 -0.67,0.56 -1.41,1.01 -2.17,1.35l4.27 -0.02 0.02 -4.22zm-10.96 4.27c-0.06,-0.03 -0.12,-0.05 -0.17,-0.08 -0.91,-0.42 -1.71,-0.98 -2.39,-1.66 -0.25,-0.25 -0.48,-0.51 -0.69,-0.78 -0.38,-0.49 -0.7,-1.01 -0.97,-1.57l-0.02 4.1 4.24 -0.02zm1.91 -18.04l1.44 -1.44 1.45 1.45 -1.44 1.44 -1.45 -1.45zm0.1 13.09c2.74,1.36 5.56,-2.02 3.82,-4.4 -0.76,-0.93 -1.67,-1.71 -2.51,-2.57 -0.71,0.66 -1.37,1.38 -2.07,2.05 -1.23,1.23 -1.2,3.27 -0.01,4.39 0.22,0.21 0.48,0.39 0.78,0.53z"/>
  </g>
 </g>
</svg>
